<svg id="logo" xmlns="http://www.w3.org/2000/svg" viewBox="0 0 74.19 45.34"><defs><style>.cls-1{fill:#fec223;}</style></defs><title>logo</title><path id="Ручка" class="cls-1" d="M69.21,5C62.36-1.87,51-1.62,43.82,5.55a18.17,18.17,0,0,0-2.67,22.82c-3.7,3.48-7.52,6.85-11.23,10.34a3.4,3.4,0,0,0,0,4.9l.79.76a3.38,3.38,0,0,0,4.82-.09C39,40.59,42.4,36.79,45.91,33.1a18.18,18.18,0,0,0,22.74-2.72C75.82,23.21,76.07,11.84,69.21,5Zm-7.16,9.55a4.14,4.14,0,1,1,0-5.86A4.14,4.14,0,0,1,62.05,14.54Z"/><path id="Правая" class="cls-1" d="M43.89,38.33l-5.33,5.79.14.15a3.39,3.39,0,0,0,4.9,0l.77-.79a3.39,3.39,0,0,0-.1-4.82Z"/><path id="Левая" class="cls-1" d="M35.65,30.66l-2.56-2.37A18.17,18.17,0,0,0,30.37,5.54C23.21-1.62,11.84-1.87,5,5s-6.6,18.23.56,25.39A18.15,18.15,0,0,0,28.36,33l2.15,2.31Z"/></svg>